{"title":"Abhijeet.Sawant-Junoon-Ek.Shaqs.avi","uid":8487466,"size":57076892,"categoryP":"video","categoryS":"music_videos","magnet":"?xt=urn:btih:66a49c7f2c28f62735276b70ad7679607eb2333c&amp;dn=Abhijeet.Sawant-Junoon-Ek.Shaqs.avi&amp;tr=udp%3A%2F%2Ftracker.openbittorrent.com%3A80&amp;tr=udp%3A%2F%2Fopen.demonii.com%3A1337&amp;tr=udp%3A%2F%2Ftracker.coppersurfer.tk%3A6969&amp;tr=udp%3A%2F%2Fexodus.desync.com%3A6969","seeders":0,"leechers":0,"uploader":"somnath2003","files":1,"time":1368905349,"description":"General:-\n\n\n\n[code]Complete name                            : Abhijeet.Sawant-Junoon-Ek.Shaqs.avi\nFormat                                   : AVI\nFormat/Info                              : Audio Video Interleave\nFile size                                : 54.4 MiB\nDuration                                 : 3mn 56s\nOverall bit rate                         : 1 932 Kbps\nWriting application                      : VirtualDubMod 1.5.10.2 (build 2540/release)\nWriting library                          : VirtualDub-MPEG2 build 24571/release[/code]\n\nVideo:-\n\n\n[code]ID                                       : 0\nFormat                                   : MPEG-4 Visual\nFormat profile                           : Advanced Simple@L5\nFormat settings, BVOP                    : 2\nFormat settings, QPel                    : No\nFormat settings, GMC                     : No warppoints\nFormat settings, Matrix                  : Custom\nCodec ID                                 : XVID\nCodec ID/Hint                            : XviD\nDuration                                 : 3mn 56s\nBit rate                                 : 1 794 Kbps\nWidth                                    : 640 pixels\nHeight                                   : 352 pixels\nDisplay aspect ratio                     : 16:9\nFrame rate                               : 25.000 fps\nColor space                              : YUV\nChroma subsampling                       : 4:2:0\nBit depth                                : 8 bits\nScan type                                : Progressive\nCompression mode                         : Lossy\nBits/(Pixel*Frame)                       : 0.319\nStream size                              : 50.5 MiB (93%)\nWriting library                          : XviD 1.1.2 (UTC 2006-11-01)[/code]\n\nAudio:-\n\n\n[code]ID                                       : 1\nFormat                                   : MPEG Audio\nFormat version                           : Version 1\nFormat profile                           : Layer 3\nMode                                     : Joint stereo\nMode extension                           : MS Stereo\nCodec ID                                 : 55\nCodec ID/Hint                            : MP3\nDuration                                 : 3mn 56s\nBit rate mode                            : Constant\nBit rate                                 : 128 Kbps\nChannel(s)                               : 2 channels\nSampling rate                            : 44.1 KHz\nCompression mode                         : Lossy\nStream size                              : 3.61 MiB (7%)\nAlignment                                : Split accross interleaves\nInterleave, duration                     : 40 ms (1.00 video frame)\nInterleave, preload duration             : 500 ms\nWriting library                          : LAME3.98a[/code]\n\n\n[center][img]http://img11.imageshack.us/img11/971/abhijeetsawantjunooneks.jpg[/img][/center]\n\n\n\n\n\n[center][img]http://www.shotpix.com/images/23865657949202556159.gif[/img][/center]","torrent":{"xt":"urn:btih:66a49c7f2c28f62735276b70ad7679607eb2333c","amp;dn":"Abhijeet.Sawant-Junoon-Ek.Shaqs.avi","amp;tr":["udp%3A%2F%2Ftracker.openbittorrent.com%3A80","udp%3A%2F%2Fopen.demonii.com%3A1337","udp%3A%2F%2Ftracker.coppersurfer.tk%3A6969","udp%3A%2F%2Fexodus.desync.com%3A6969"],"infoHash":"66a49c7f2c28f62735276b70ad7679607eb2333c","infoHashBuffer":{"type":"Buffer","data":[102,164,156,127,44,40,246,39,53,39,107,112,173,118,121,96,126,178,51,60]},"announce":[],"urlList":[]}}